<?xml version='1.0' encoding='iso-8859-1'?>
<!DOCTYPE svg PUBLIC '-//W3C//DTD SVG 1.1//EN' 'http://www.w3.org/Graphics/SVG/1.1/DTD/svg11.dtd'>
<!-- Uploaded to: SVG Repo, www.svgrepo.com, Generator: SVG Repo Mixer Tools -->
<svg fill="#000000" height="800px" width="800px" version="1.1" xmlns="http://www.w3.org/2000/svg" viewBox="0 0 297 297" xmlns:xlink="http://www.w3.org/1999/xlink" enable-background="new 0 0 297 297">
  <g>
    <path d="m159.206,181.749c11.905,10.96 23.675,18.734 24.17,19.06 1.744,1.148 3.745,1.721 5.746,1.721 2.001,0 4.003-0.574 5.746-1.721 0.496-0.326 12.263-8.102 24.165-19.063 17.386-16.01 26.201-30.722 26.201-43.729 0-19.016-14.931-34.486-33.281-34.486-8.83,0-16.867,3.58-22.831,9.411-5.966-5.831-14.004-9.411-22.834-9.411-18.355,0-33.289,15.471-33.289,34.486 2.84217e-14,13.009 8.817,27.723 26.207,43.732zm7.082-57.302c6.824,0 12.376,6.088 12.376,13.57 0,5.775 4.683,10.458 10.458,10.458s10.457-4.683 10.457-10.458c0-7.482 5.551-13.57 12.374-13.57 6.818,0 12.365,6.088 12.365,13.57 0,11.264-19.023,29.545-35.197,41.324-16.179-11.777-35.206-30.059-35.206-41.324-2.84217e-14-7.482 5.55-13.57 12.373-13.57z"/>
    <path d="m269.287,0h-224.319c-5.774,0-10.457,4.683-10.457,10.458v49.936h-6.798c-5.775,0-10.458,4.683-10.458,10.458s4.683,10.457 10.458,10.457h6.798v30.851h-6.798c-5.775,0-10.458,4.683-10.458,10.458 0,5.775 4.683,10.457 10.458,10.457h6.798v30.851h-6.798c-5.775,0-10.458,4.683-10.458,10.458 0,5.775 4.683,10.458 10.458,10.458h6.798v30.851h-6.798c-5.775,0-10.458,4.682-10.458,10.457 0,5.775 4.683,10.458 10.458,10.458h6.798v49.936c0,5.775 4.683,10.458 10.457,10.458h224.319c5.775,0 10.458-4.683 10.458-10.458v-276.086c0-5.775-4.682-10.458-10.458-10.458zm-10.458,276.084h-203.403v-39.478h6.798c5.775,0 10.458-4.683 10.458-10.458 0-5.775-4.683-10.457-10.458-10.457h-6.798v-30.851h6.798c5.775,0 10.458-4.683 10.458-10.458 0-5.775-4.683-10.458-10.458-10.458h-6.798v-30.851h6.798c5.775,0 10.458-4.682 10.458-10.457 0-5.775-4.683-10.458-10.458-10.458h-6.798v-30.849h6.798c5.775,0 10.458-4.682 10.458-10.457s-4.683-10.458-10.458-10.458h-6.798v-39.478h203.403v255.168z"/>
    <path d="m96.734,258.843c5.775,0 10.458-4.683 10.458-10.458v-199.772c0-5.775-4.683-10.458-10.458-10.458-5.775,0-10.458,4.683-10.458,10.458v199.771c0,5.776 4.683,10.459 10.458,10.459z"/>
  </g>
</svg>